<svg viewBox="0 0 48 48" xmlns="http://www.w3.org/2000/svg"><path d="M17.734 9.922c-4.655 2.546-7.812 7.476-7.812 13.156 0 8.284 6.716 15 15 15 5.68 0 10.61-3.157 13.156-7.812a14.96 14.96 0 0 1-7.156 1.812c-8.284 0-15-6.716-15-15 0-2.589.658-5.03 1.812-7.156z" fill="#616f80" fill-opacity="1" stroke="none" class="fill-000000"></path><path d="M30.64 11.106c-.49 0-.983.016-1.481.05-1.99.166-3.996.645-5.874 1.584-2.782 1.391-6.602 1.46-9.705 1.073-3.103-.388-5.414-1.175-5.414-1.175a1.64 1.64 0 1 0-1.022 3.116s2.592.847 6.027 1.277c3.436.43 7.788.499 11.544-1.38 2.782-1.39 6.602-1.46 9.705-1.072 3.103.388 5.414 1.175 5.414 1.175a1.64 1.64 0 1 0 1.022-3.116s-2.592-.848-6.027-1.277a31.087 31.087 0 0 0-4.189-.255zm0 9.807c-.49 0-.983.017-1.481.05-1.99.166-3.996.645-5.874 1.584-2.782 1.391-6.602 1.46-9.705 1.073-3.103-.388-5.414-1.175-5.414-1.175a1.64 1.64 0 1 0-1.022 3.116s2.592.848 6.027 1.277c3.436.43 7.788.5 11.544-1.38 2.782-1.39 6.602-1.46 9.705-1.072 3.103.388 5.414 1.175 5.414 1.175a1.64 1.64 0 1 0 1.022-3.116s-2.592-.847-6.027-1.277a31.087 31.087 0 0 0-4.189-.255zm0 9.807c-.49 0-.983.017-1.481.051-1.99.166-3.996.644-5.874 1.584-2.782 1.39-6.602 1.46-9.705 1.072-3.103-.388-5.414-1.175-5.414-1.175a1.64 1.64 0 1 0-1.022 3.116s2.592.848 6.027 1.277c3.436.43 7.788.5 11.544-1.379 2.782-1.39 6.602-1.46 9.705-1.073 3.103.388 5.414 1.175 5.414 1.175a1.64 1.64 0 1 0 1.022-3.116s-2.592-.847-6.027-1.277a31.087 31.087 0 0 0-4.189-.255z" style="text-indent:0;text-align:start;line-height:normal;text-transform:none;block-progression:tb;marker:none;-inkscape-font-specification:Sans" font-size="medium" font-style="normal" font-variant="normal" font-weight="400" font-stretch="normal" text-decoration="none" letter-spacing="normal" word-spacing="normal" direction="ltr" writing-mode="lr-tb" text-anchor="start" baseline-shift="baseline" color="#000000" fill="#616f80" fill-opacity="1" stroke="none" stroke-width="2" visibility="visible" display="inline" overflow="visible" enable-background="accumulate" font-family="Sans" class="fill-000000"></path></svg>