<?xml version="1.0" ?><svg data-name="Layer 1" id="Layer_1" viewBox="0 0 256 256" xmlns="http://www.w3.org/2000/svg"><defs><style>.cls-1{fill:none;stroke:#95cdd1;stroke-linecap:round;stroke-linejoin:round;stroke-width:6px;}</style></defs><title/><path class="cls-1" d="M53.75,151.78a35.82,35.82,0,0,1,0-71.64h0a46.13,46.13,0,0,1,91.3-8.41"/><path class="cls-1" d="M53.75,151.78H176.42a15,15,0,0,0,15-15h0a15,15,0,0,0-15-15h-.15a32.18,32.18,0,0,0-46.08-43.58"/><path class="cls-1" d="M122.36,87.22l-.24.33"/><line class="cls-1" x1="30.3" x2="21.36" y1="212.4" y2="227.87"/><line class="cls-1" x1="56.17" x2="43.08" y1="167.59" y2="190.26"/><line class="cls-1" x1="56.52" x2="47.26" y1="231.04" y2="247.09"/><line class="cls-1" x1="75.23" x2="65.79" y1="198.63" y2="214.99"/><line class="cls-1" x1="90.99" x2="86.07" y1="171.33" y2="179.87"/><line class="cls-1" x1="85.32" x2="76.39" y1="234.21" y2="249.68"/><line class="cls-1" x1="122.96" x2="98.1" y1="169.03" y2="212.07"/><line class="cls-1" x1="128.57" x2="119.3" y1="223.37" y2="239.42"/><line class="cls-1" x1="149.13" x2="139.68" y1="187.76" y2="204.12"/><line class="cls-1" x1="160.58" x2="155.65" y1="167.93" y2="176.47"/><path class="cls-1" d="M177.44,119.8a58.52,58.52,0,0,0,60.62-29.24,58.45,58.45,0,0,1-68.4-84.24,58.56,58.56,0,0,0-39,40.35"/></svg>