<svg viewBox="0 0 512 512" xml:space="preserve" xmlns="http://www.w3.org/2000/svg"><path d="M301.366 193.895c-5.143-53.995-53.106-96.312-111.51-96.312-61.839 0-111.963 47.423-111.963 105.939 0 5.675.473 11.249 1.38 16.676-38.884 4.584-69.082 38.514-69.082 79.675 0 44.281 34.965 80.189 78.098 80.189h286.289c31.39 0 56.819-22.71 56.819-50.733 0-25.329-20.791-46.333-47.972-50.121 0-44.296-34.8-85.422-77.934-85.422a77.093 77.093 0 0 0-4.125.109" fill="#D8EAEF" class="fill-d8eaef"></path><path d="M259.464 193.895c-4.403-53.995-44.991-97.175-94.862-93.606-31.369 2.242-86.708 44.717-86.708 103.233 0 5.675 1.38 16.676 1.38 16.676-36.08 3.243-69.082 38.514-69.082 79.675 0 44.281 29.933 80.189 66.858 80.189h245.088c26.874 0 48.644-22.71 48.644-50.733 0-25.329-17.799-46.333-41.069-50.121 0-44.296-29.791-85.422-66.718-85.422a56.5 56.5 0 0 0-3.531.109c-19.558 1.229-36.886 12.524-48.455 29.649" fill="#ffffff" class="fill-ffffff"></path><path d="M301.366 193.895c-5.143-53.995-53.106-96.312-111.51-96.312-61.839 0-111.963 47.423-111.963 105.939 0 5.675.473 11.249 1.38 16.676h0c-38.884 4.584-69.082 38.514-69.082 79.675 0 44.281 34.965 80.189 78.098 80.189h286.289c31.39 0 56.819-22.71 56.819-50.733 0-25.329-20.791-46.333-47.972-50.121h0c.001-44.297-38.925-85.313-82.059-85.313-1.384 0 1.358-.072 0 0-22.845 1.229-43.087 12.524-56.6 29.649" fill="none" stroke="#354F65" stroke-linecap="round" stroke-linejoin="round" stroke-miterlimit="10" stroke-width="13" class="stroke-354f65"></path><path d="M371.776 228.252c-5.143-53.997-53.107-96.313-111.51-96.313-61.84 0-111.964 47.424-111.964 105.94 0 5.674.473 11.249 1.38 16.675-38.884 4.584-69.082 38.514-69.082 79.676 0 44.28 34.965 80.188 78.098 80.188h286.288c31.391 0 56.82-22.709 56.82-50.733 0-25.329-20.791-46.333-47.973-50.12 0-44.296-34.799-85.422-77.934-85.422-1.381 0-2.767.036-4.123.109" fill="#D8EAEF" class="fill-d8eaef"></path><path d="M329.873 228.252c-4.402-53.997-44.991-97.175-94.862-93.608-31.369 2.244-86.708 44.719-86.708 103.235 0 5.674 1.38 16.675 1.38 16.675-36.081 3.244-69.082 38.514-69.082 79.676 0 44.28 29.933 80.188 66.859 80.188h245.088c26.874 0 48.645-22.709 48.645-50.733 0-25.329-17.799-46.333-41.069-50.12 0-44.296-29.793-85.422-66.718-85.422a56.54 56.54 0 0 0-3.533.109c-19.558 1.229-36.887 12.523-48.455 29.648" fill="#ffffff" class="fill-ffffff"></path><path d="M371.776 228.252c-5.143-53.997-53.107-96.313-111.51-96.313-61.84 0-111.964 47.424-111.964 105.94 0 5.674.473 11.249 1.38 16.675h0C110.798 259.138 80.6 293.068 80.6 334.23c0 44.28 34.965 80.188 78.098 80.188h286.288c31.391 0 56.82-22.709 56.82-50.733 0-25.329-20.791-46.333-47.973-50.12h0c.002-44.296-38.923-85.313-82.057-85.313-1.384 0 1.356-.073 0 0-22.845 1.229-43.087 12.523-56.602 29.648" fill="none" stroke="#354F65" stroke-linecap="round" stroke-linejoin="round" stroke-miterlimit="10" stroke-width="13" class="stroke-354f65"></path></svg>