<svg viewBox="0 0 512 512" xml:space="preserve" xmlns="http://www.w3.org/2000/svg" enable-background="new 0 0 512 512"><path d="M327.2 187.5c0-41.6-33.7-75.3-75.3-75.3-4.6 0-9.1.4-13.4 1.2 2.9-7.1 4.5-14.9 4.5-23 0-33.5-27.2-60.7-60.7-60.7-29.6 0-54.2 21.1-59.6 49.1h-1.1c-50.8 0-92.1 41.2-92.1 92.1S70.7 263 121.6 263h130.3c41.6-.2 75.3-33.9 75.3-75.5z" fill="#2b79c2" class="fill-2b79c2"></path><path d="M128.5 330.6c0 19 15.5 34.5 34.5 34.5s34.5-15.5 34.5-34.5-15.5-34.5-34.5-34.5c-19.1 0-34.5 15.5-34.5 34.5zm55 0c0 11.3-9.2 20.5-20.5 20.5s-20.5-9.2-20.5-20.5 9.2-20.5 20.5-20.5 20.5 9.2 20.5 20.5zM287 307.1c-13 0-23.5 10.5-23.5 23.5s10.5 23.5 23.5 23.5 23.5-10.5 23.5-23.5-10.6-23.5-23.5-23.5zm0 33c-5.2 0-9.5-4.3-9.5-9.5s4.3-9.5 9.5-9.5 9.5 4.3 9.5 9.5c0 5.3-4.3 9.5-9.5 9.5zM359.9 359.3c-19 0-34.5 15.5-34.5 34.5s15.5 34.5 34.5 34.5 34.5-15.5 34.5-34.5-15.5-34.5-34.5-34.5zm0 55c-11.3 0-20.5-9.2-20.5-20.5s9.2-20.5 20.5-20.5 20.5 9.2 20.5 20.5-9.2 20.5-20.5 20.5zM395.6 278.9c19 0 34.5-15.5 34.5-34.5s-15.5-34.5-34.5-34.5-34.5 15.5-34.5 34.5 15.5 34.5 34.5 34.5zm0-55c11.3 0 20.5 9.2 20.5 20.5s-9.2 20.5-20.5 20.5-20.5-9.2-20.5-20.5c0-11.4 9.2-20.5 20.5-20.5zM284.9 89.9c3.6 2.7 8 4.1 12.4 4.1 1 0 2.1-.1 3.1-.2 5.5-.8 10.4-3.7 13.7-8.2 3.3-4.5 4.7-10 3.9-15.5-1.7-11.4-12.4-19.3-23.8-17.6-11.4 1.7-19.3 12.4-17.6 23.8.9 5.4 3.8 10.3 8.3 13.6zm11.5-23.7c.3-.1.7-.1 1-.1 3.4 0 6.3 2.5 6.9 5.9.3 1.8-.2 3.7-1.3 5.1-1.1 1.5-2.7 2.5-4.6 2.7-1.8.3-3.7-.2-5.1-1.3-1.5-1.1-2.5-2.7-2.7-4.6-.6-3.6 2-7.1 5.8-7.7zM456 278.3c-14.6 0-26.4 11.9-26.4 26.4s11.9 26.4 26.4 26.4c14.6 0 26.4-11.9 26.4-26.4s-11.8-26.4-26.4-26.4zm0 38.9c-6.9 0-12.4-5.6-12.4-12.4s5.6-12.4 12.4-12.4c6.9 0 12.4 5.6 12.4 12.4s-5.5 12.4-12.4 12.4zM249.7 382.9c-19 0-34.5 15.5-34.5 34.5s15.5 34.5 34.5 34.5 34.5-15.5 34.5-34.5-15.4-34.5-34.5-34.5zm0 55c-11.3 0-20.5-9.2-20.5-20.5s9.2-20.5 20.5-20.5 20.5 9.2 20.5 20.5-9.1 20.5-20.5 20.5zM411.4 184.4c1.4 1.4 3.2 2.1 5 2.1s3.6-.7 5-2.1c2.7-2.7 2.7-7.2 0-9.9l-37.7-37.7c-2.7-2.7-7.2-2.7-9.9 0s-2.7 7.2 0 9.9l37.6 37.7zM440.7 213.1c1.4 1.4 3.2 2.1 5 2.1 1.8 0 3.6-.7 5-2.1 2.7-2.7 2.7-7.2 0-9.9l-9.1-9.1c-2.7-2.7-7.2-2.7-9.9 0s-2.7 7.2 0 9.9l9 9.1zM429.2 365.8c2.7-2.7 2.7-7.2 0-9.9l-55.3-55.3c-2.7-2.7-7.2-2.7-9.9 0s-2.7 7.2 0 9.9l55.3 55.3c1.4 1.4 3.2 2 5 2 1.8.1 3.6-.6 4.9-2zM458.2 384.2c-2.7-2.7-7.2-2.7-9.9 0s-2.7 7.2 0 9.9l14 14c1.4 1.4 3.2 2 5 2 1.8 0 3.6-.7 5-2 2.7-2.7 2.7-7.2 0-9.9l-14.1-14zM140.4 397.2c-2.7-2.7-7.2-2.7-9.9 0s-2.7 7.2 0 9.9l69.6 69.6c1.4 1.4 3.2 2 5 2 1.8 0 3.6-.7 5-2 2.7-2.7 2.7-7.2 0-9.9l-69.7-69.6zM332.2 441c-2.7-2.7-7.2-2.7-9.9 0s-2.7 7.2 0 9.9l17.1 17.1c1.4 1.4 3.2 2 5 2 1.8 0 3.6-.7 5-2 2.7-2.7 2.7-7.2 0-9.9L332.2 441zM434.9 449.5c-2.7-2.7-7.2-2.7-9.9 0s-2.7 7.2 0 9.9l21 21c1.4 1.4 3.2 2.1 5 2.1 1.8 0 3.6-.7 4.9-2 2.7-2.7 2.7-7.2 0-9.9l-21-21.1z" fill="#60b1bd" class="fill-3b4652"></path></svg>