<svg viewBox="0 0 64 64" xml:space="preserve" xmlns="http://www.w3.org/2000/svg"><g fill="none" stroke="#37afba" stroke-linecap="round" stroke-linejoin="round" stroke-miterlimit="10" class="stroke-231f20"><g stroke-width="2"><path d="M42.543 42.908h12.102c4.623 0 8.369-3.346 8.369-7.471 0-3.731-3.062-6.825-7.064-7.382h0c0-6.523-5.732-12.564-12.084-12.564-.205 0 .199-.01 0 0-3.363.182-6.346 1.846-8.336 4.367"></path><path d="M43.865 15.491C43.107 7.54 36.045 1.31 27.444 1.31c-9.106 0-16.487 6.982-16.487 15.6 0 .836.069 1.656.203 2.457h0C5.434 20.04.987 25.036.987 31.099c0 6.521 5.149 11.81 11.5 11.81h3.791"></path></g><path d="m16.22 61.926-4.175-4.174M11.281 60.602l5.702-1.526M14.896 56.988l-1.528 5.703M31.886 60.023l-4.174-4.173M26.949 58.699l5.701-1.527M30.564 55.084l-1.529 5.703M23.145 51.281l-4.175-4.174M18.207 49.957l5.702-1.527M21.822 46.342l-1.528 5.705M38.814 49.377l-4.175-4.174M33.875 48.055l5.701-1.528M37.488 44.439l-1.529 5.704M47.9 58.467l-4.175-4.176M42.961 57.143l5.703-1.528M46.576 53.527l-1.527 5.702"></path></g></svg>