<?xml version="1.0" ?><svg data-name="Layer 1" id="Layer_1" viewBox="0 0 256 256" xmlns="http://www.w3.org/2000/svg"><defs><style>.cls-1{fill:none;stroke:#95cdd1;stroke-linecap:round;stroke-linejoin:round;stroke-width:6px;}</style></defs><title/><path class="cls-1" d="M77.31,125.79a35.64,35.64,0,0,1,0-71.28h0a45.9,45.9,0,0,1,90.85-8.37"/><path class="cls-1" d="M77.31,125.79H199.37a15,15,0,0,0,15-15h0a15,15,0,0,0-15-15h-.15a32,32,0,0,0-45.85-43.36"/><path class="cls-1" d="M145.58,61.55l-.24.32"/><g data-name="Electricity Symbol" id="Electricity_Symbol"><polygon class="cls-1" points="163.65 192.45 137.89 190.33 142.37 140.69 101.57 194.04 127.33 196.16 122.89 245.28 163.65 192.45"/></g><line class="cls-1" x1="77.31" x2="65.54" y1="145.78" y2="161.17"/><line class="cls-1" x1="95.17" x2="83.39" y1="170.1" y2="185.5"/><line class="cls-1" x1="68.07" x2="56.29" y1="214.44" y2="229.84"/><line class="cls-1" x1="65.54" x2="53.76" y1="185.29" y2="200.68"/><line class="cls-1" x1="99.74" x2="87.96" y1="225.03" y2="240.43"/><line class="cls-1" x1="199.68" x2="187.91" y1="171.76" y2="187.15"/><line class="cls-1" x1="168.17" x2="156.4" y1="218.6" y2="233.99"/><line class="cls-1" x1="191.29" x2="179.51" y1="231.11" y2="246.5"/><line class="cls-1" x1="183.07" x2="171.3" y1="145.78" y2="161.17"/></svg>