<svg viewBox="0 0 24 24" xml:space="preserve" xmlns="http://www.w3.org/2000/svg"><path d="M15 7h1c0-2.2-1.8-4-4-4v1c1.7 0 3 1.3 3 3zM9 20H0v1h9c.6 0 1 .4 1 1s-.4 1-1 1-1-.4-1-1H7c0 1.1.9 2 2 2s2-.9 2-2-.9-2-2-2z" fill="#bdbdbd" class="fill-000000"></path><path d="M14 18H0v1h14c.6 0 1 .4 1 1s-.4 1-1 1-1-.4-1-1h-1c0 1.1.9 2 2 2s2-.9 2-2-.9-2-2-2zM9 16H0v1h9c1.1 0 2-.9 2-2s-.9-2-2-2-2 .9-2 2h1c0-.6.4-1 1-1s1 .4 1 1-.4 1-1 1z" fill="#bdbdbd" class="fill-000000"></path><path d="M19 5h-.3c-.9-2.9-3.5-5-6.7-5-2.4 0-4.5 1.2-5.8 3H6C2.7 3 0 5.7 0 9s2.7 6 6 6c0-.8.3-1.5.8-2H6c-2.2 0-4-1.8-4-4 0-.3 0-.5.1-.8 0-.1 0-.2.1-.2 0-.2.1-.3.1-.5 0-.1.1-.2.1-.3.1-.1.1-.2.2-.3.1-.1.1-.2.2-.3l.3-.3c0-.1.1-.2.2-.3.1 0 .2-.1.3-.2.1-.1.2-.2.3-.2.1 0 .2-.1.2-.1.1-.1.3-.1.4-.2.1 0 .1 0 .2-.1.5-.1.9-.2 1.3-.2.5 0 .9.1 1.3.2.7-1.7 2.2-3 4.1-3.2h.6c1.1 0 2.1.4 2.9 1 .9.6 1.5 1.5 1.8 2.6.1.2.1.4.2.6.1.3.1.5.1.8h2c1.7 0 3 1.3 3 3s-1.3 3-3 3h-7.8c.5.5.8 1.2.8 2h7c2.8 0 5-2.2 5-5s-2.2-5-5-5z" fill="#bdbdbd" class="fill-000000"></path></svg>